<svg width="20" height="20" viewBox="0 0 20 20" fill="none" xmlns="http://www.w3.org/2000/svg">
<path fill-rule="evenodd" clip-rule="evenodd" d="M4.19238 16.5957C4.19238 16.0434 4.51758 15.5957 4.91873 15.5957L10.2287 15.5957C10.6299 15.5957 10.9551 16.0434 10.9551 16.5957C10.9551 17.148 10.6299 17.5957 10.2287 17.5957L4.91873 17.5957C4.51758 17.5957 4.19238 17.148 4.19238 16.5957Z" fill="white"/>
<path fill-rule="evenodd" clip-rule="evenodd" d="M15.3372 1.15918H3C1.61929 1.15918 0.5 2.27847 0.5 3.65918V12.158C0.5 13.5387 1.61929 14.658 3 14.658H11.3281V12.658H3C2.72386 12.658 2.5 12.4341 2.5 12.158V3.65918C2.5 3.38304 2.72386 3.15918 3 3.15918H15.3372C15.6133 3.15918 15.8372 3.38304 15.8372 3.65918V6.81738H16.9997C17.2758 6.81738 17.4997 7.04124 17.4997 7.31738V13.4132C17.7143 13.0443 17.8372 12.6155 17.8372 12.158V3.65918C17.8372 2.27847 16.7179 1.15918 15.3372 1.15918Z" fill="white"/>
<path fill-rule="evenodd" clip-rule="evenodd" d="M11.8281 4.81738H16.9997C18.3804 4.81738 19.4997 5.93667 19.4997 7.31738V16.3406C19.4997 17.7213 18.3804 18.8406 16.9997 18.8406H11.8281C10.4474 18.8406 9.32812 17.7213 9.32812 16.3406V7.31738C9.32812 5.93667 10.4474 4.81738 11.8281 4.81738ZM11.8281 6.81738C11.552 6.81738 11.3281 7.04124 11.3281 7.31738V16.3406C11.3281 16.6168 11.552 16.8406 11.8281 16.8406H16.9997C17.2758 16.8406 17.4997 16.6168 17.4997 16.3406V7.31738C17.4997 7.04124 17.2758 6.81738 16.9997 6.81738H11.8281Z" fill="white"/>
</svg>
